<?xml version="1.0" encoding="UTF-8"?>
<svg id="Logo" xmlns="http://www.w3.org/2000/svg" viewBox="0 0 315.63155 58.90404">
  <g>
    <g id="Group_507" data-name="Group 507">
      <path id="Path_340" data-name="Path 340" d="m29.64246,58.90404c-6.4,0-12.6-2.1-17.8-5.9-3.3-2.4-6-5.5-8-9.1-1.9-3.3-3.2-7-3.6-10.8-.8-6.1.4-12.3,3.3-17.7,1.9-3.5,4.6-6.7,7.8-9.1C23.44245-3.19596,40.74246-1.79596,51.34246,9.40404c5.7,6.1,8.6,14.3,7.9,22.6-.5,6.4-3.1,12.4-7.4,17.2-2.3,2.5-4.9,4.6-7.9,6.2-2.5,1.3-5.2,2.3-8.1,2.9-2.1.4-4.2.60001-6.2.60001Z" style="fill: #781e19; stroke-width: 0px;"/>
      <path id="Path_342" data-name="Path 342" d="m29.94245,58.90404h0c.2,0,.3-.1.5,0h-.5Z" style="fill: #a06c6a; stroke-width: 0px;"/>
      <path id="Path_343" data-name="Path 343" d="m29.14246,58.90404h-.4c.1-.1.3,0,.4,0Z" style="fill: #a77775; stroke-width: 0px;"/>
      <path id="Path_344" data-name="Path 344" d="m30.94245,58.90404h-.3c.1-.1.2,0,.3,0Z" style="fill: #d4bbb9; stroke-width: 0px;"/>
      <path id="Path_345" data-name="Path 345" d="m29.64246,52.50404c-5,0-9.8-1.6-13.8-4.6-2.6-1.9-4.7-4.3-6.3-7.1-1.5-2.6-2.5-5.5-2.8-8.5-.6-4.8.3-9.6,2.6-13.8,1.5-2.8,3.6-5.2,6-7.1,9.5-7.4,23-6.4,31.2,2.4,4.5,4.7,6.7,11.1,6.1,17.6-.4,5-2.4,9.7-5.8,13.4-1.8,2-3.9,3.6-6.2,4.9-2,1.1-4.1,1.8-6.3,2.3-1.5.29999-3.09999.49998-4.7.49998Z" style="fill: #fff; stroke-width: 0px;"/>
      <path id="Path_346" data-name="Path 346" d="m32.34246,55.10403q0-.4.4-.5c-.1-.2-.2-.4-.5-.3-.2.1-.4,0-.4-.2-.2-.3-.4-.5-.7-.8-.2-.2-.5-.3-.8-.4-.4-.1-.8.2-.9.6v.3c0,.2.1.3.2.5-1.5,0-3-.1-4.5-.4.1.2.1.4.3.4q.4.1.3.5v.1c-.1.2,0,.5-.2.6s-.4-.1-.6-.1-.2-.1-.2-.2c0-.2.1-.4.1-.7.1-.4-.1-.8-.3-1s-.5-.2-.7,0c0,.1-.1.1-.2.1-.2-.1-.4-.1-.6-.2-.1,0-.1-.1-.1-.1-.1-.5-.3-1-.6-1.4-.2-.3-.5-.4-.8-.5s-.7.2-.8.5c-.1.2-.1.5-.1.7-.4-.2-.8-.3-1.2-.5q-.1-.1-.1-.2c0-.4-.1-.9-.3-1.2-.1-.2-.2-.4-.4-.6-.3-.3-.8-.3-1.1,0-.1.1-.2.2-.2.3-.1.2-.1.3-.1.5l-.7-.40001c0,.3,0,.5.3.6.1,0,.1.1.1.2-.4.6-.7,1.2-1.1,1.8-.1.1-.1.2,0,.3s.2.2.2.3l1.3-2.2c.2.2.5.3.8.4.1,0,.2.1.1.2,0,.2-.1.4-.3.6-.1.1-.3.2-.3-.1,0-.1-.1-.2-.2-.2s-.2.1-.2.2v.3c.1.6.2,1.1.4,1.7,0,.1.1.1.2.1s.2-.1.1-.2c-.2-.2-.3-.5-.3-.8-.1-.2-.1-.3.2-.3.1,0,.2-.1.3-.2s.1-.1.2,0c.1.3.4.6.8.7-.1.2-.2.5-.3.7-.1.1-.1.2,0,.3s.1.2.2.3l.9-1.9c0-.1.1-.2.2-.3.1-.1.2.1.4.1s.2.1.1.2c-.2.5-.4,1.1-.6,1.6-.2.3-.1.6.2.8,0,0,0-.1.1-.1.2-.6.5-1.3.7-1.9.1-.1.1-.3.2-.3.1-.1.2.1.3.1.6.2,1.2.4,1.8.5.2.1.1.2.1.2,0,0-.1.2-.2.2-.2-.1-.3-.1-.5-.2-.3-.1-.5-.1-.8.1-.2.2-.2.5,0,.7q0,.1-.1.2c-.1.1-.3,0-.3-.1-.1-.1,0-.2.1-.3q.1-.1,0-.2c-.1-.1-.1-.2-.2-.2,0-.1-.1-.1-.1-.1-.2.1-.4.4-.3.6v.1c.1.1.2.2.3.3q.1.1.1.2c-.1.1-.1.3,0,.4.2.4.7.6,1.2.5.2,0,.3-.2.4-.2.1.1.1.3.2.5,0,.1.1.1.2.1s.1-.1.1-.2c-.1-.2-.2-.3-.3-.5-.1-.1-.2-.2.1-.3.2-.1.2-.2.2-.4s-.2-.3-.4-.3-.3,0-.3.2c0,.1-.1.1-.1.1-.1,0-.2-.1-.4-.1-.2-.1-.3-.3-.2-.5s.3-.3.5-.2h0c.2,0,.3.1.5.1.2.1.4.2.6.1s.1-.4.2-.6c0-.1,0-.2.1-.2s.2.1.2.2c0,.2.2.3.3.4.2.1.2.3.2.5s-.1.2-.2.2c-.2,0-.3,0-.3.2,0,.3.2.6.5.8.2.1.3,0,.3-.1,0-.4.2-.3.4-.3h.2q.3.1.2.3-.1.5.3.8c.1-.7.2-1.4.4-2.1,0-.1,0-.3.1-.4s.2,0,.3,0h.1l1.5.1q.1,0,.1.1c0,.3,0,.6-.1.9-.1-.1-.2-.2-.3-.3-.2-.2-.4-.3-.7-.3-.4-.1-.7.2-.8.5v.2c.1.6.7.9,1.3.8h.1c.1-.1.2-.1.3-.1-.1.4,0,.7.4.8,0-.7.1-1.4.2-2.1v-.4c.1-.2.3,0,.4-.1.2-.1.2,0,.2.2v1.7q0,.5.5.7v-2.3c0-.2,0-.3.3-.3.5,0,.9-.1,1.4-.1s.3-.1.4.3c0,.1,0,.2-.2.2s-.5.1-.8,0c-.4,0-.7.2-.7.6,0,.2,0,.3.1.5.2.3.4.6.7.8.1.1.1.2.2.1s0-.2-.1-.2c-.3-.2-.4-.5-.5-.8,0-.2.1-.4.3-.4h.1c.2,0,.5,0,.7-.1.1,0,.2,0,.2.1,0,.2.1.5,0,.8,0,.4.2.6.5.6v-.3c-.30001-.39996-.30001-.99997-.40001-1.59997Zm-15.1-4c-.1,0-.1-.1-.1-.2h0c.2-.4.7-.8,1.2-.3.3.4.5.9.6,1.4-.6-.2-1.1-.5-1.7-.9h0Zm2,1.6c-.1.2-.2.3-.2.5-.1.2-.2.2-.4.2-.3,0-.6-.2-.6-.5v-.2c.1-.2.1-.3.1-.5q0-.1.1-.1c.3.1.5.3.8.4q.2.1.2.2Zm1.6.10001q-.1-.1-.1-.2c.2-.5.5-.9,1.2-.4.4.3.7.8.8,1.2-.7-.1-1.3-.3-1.9-.6h0Zm.9,2.7c.2.1.3.2.5.2-.2.2-.4.3-.6.3-.1,0-.3,0-.3-.2,0-.1,0-.2.1-.3,0,0,.2,0,.3,0h0Zm2.6-1c-.1.1-.3-.2-.3-.4s.1-.3.3-.3c.1,0,.2.1.2.2-.1.2-.1.40001-.2.50001h0Zm3.8,1.5c-.2.1-.5.2-.7.3-.3,0-.5-.1-.6-.3,0-.2.2-.4.5-.5h.2c.3,0,.5.2.6.5.1,0,0,0,0,0h0Zm2.9-1.6c-.4,0-.8.1-1.2,0-.1,0-.2,0-.2-.2-.1-.4.1-.7.5-.8h.4c.5.2.9.5,1.2.9-.3,0-.5.1-.7.1h0Z" style="fill: #fff; stroke-width: 0px;"/>
      <path id="Path_347" data-name="Path 347" d="m42.64246,51.70403q-.2-.3.1-.5h0c-.2-.2-.5-.2-.7,0-.3.2-.7.4-1,.6-1,.4-1.9.9-2.9,1.2-1.2.4-2.4.8-3.6,1-.5.1-1,.2-1.4.3.1.2.4.3.7.2.3-.1.7-.1,1-.2q.1,0,.2.1c0,.2.1.5.1.7-.6-.3-.7-.3-1-.2-.3.1-.4.3-.4.6.1.5.6.8,1.1.6.1,0,.2-.1.3-.2h0c.1.3.1.7.5.8.1,0,.1-.1.1-.2-.1-.3-.1-.5-.2-.8s.1-.5.3-.7c.2-.1.4-.1.5.1,0,.1.1.1.1.2,0,.2,0,.4-.1.6-.1.1,0,.2.1.2s.1.1.2.1c.1.1.1,0,.2-.1.1-.2.1-.5.1-.7-.2-.7-.8-1-1.3-.6v-.2q-.1-.5.4-.6c.3,0,.6-.1.9-.3.1-.1.1,0,.2.1.1.2.2.5.2.7q.1.2-.1.3c-.2.1-.2.2-.1.4.2.2.3.3.6.4.1.1.3.1.4,0s0-.2,0-.4,0-.2.1-.2c.2-.1.4-.1.6-.2.1,0,.2,0,.2.1s0,.1.1.2c.10001.4.2.4.7.4,0-.1-.1-.2-.1-.2-.2-.7-.5-1.4-.7-2.1,0,0-.1-.1,0-.2.7-.3,1.4-.6,2.1-.9q.2-.1.3.1,0,.1.1.2.1.2-.1.3c-.4.2-.8.4-1.2.6.2.1.3.1.5.2s.3.2.5.3c.1.1.2.3,0,.5-.1.1-.2.1-.3.1-.2,0-.4,0-.5-.1-.2-.1-.4-.3-.6-.5,0,0-.1-.1-.1,0-.1,0-.1.1,0,.1.4.5.9.8,1.6.9.3,0,.6-.2.6-.5,0-.2-.1-.4-.2-.5-.2-.1-.3-.2-.5-.3.2-.1.4-.2.6-.3.1-.1.2,0,.2.1.1.3.3.6.4.9,0,.1.1.2.2.2h.4c0-.1,0-.2-.1-.2-.3-.6-.5-1.2-.8-1.7-.1-.1-.1-.2-.2-.3,0-.2.2-.1.3-.2.1-.2.2-.1.2,0,.3.5.6,1,.9,1.5.2.4.3.4.7.3l-1.4-2.10001Zm-7.4,3.7c-.1.2-.3.3-.5.4-.1.1-.3,0-.4-.1h0v-.2c.2-.30001.5-.40001.9-.10001h0q0-.1,0,0Zm3.4-1.1q0,.1,0,0c-.3.1-.6.3-.8.2s-.2-.4-.3-.6c-.2-.4-.1-.4.3-.5q.4-.2.6.3l.2.6q.1,0,0,0h0Z" style="fill: #fff; stroke-width: 0px;"/>
      <path id="Path_348" data-name="Path 348" d="m55.04245,29.40404c.6.2,1.2.3,1.7.5.2.1.6.1.7.2.1.2,0,.5.1.7s-.1.3-.3.3c-1,0-1.9.1-2.9.2-.2,0-.3,0-.3-.2q0-.5.5-.6c.7,0,1.4-.1,2.2-.1-.8-.2-1.6-.4-2.3-.7-.1,0-.3,0-.3-.1v-.5c0-.1.1-.1.2-.1.7-.2,1.5-.5,2.2-.6q.1,0,.2-.1l-1.89996-.10001h-.6c-.1,0-.2,0-.2-.2q-.1-.6.5-.6c.9,0,1.9.1,2.8.1.1,0,.2,0,.2.2,0,.3.1.6,0,.8s-.5.2-.8.3c-.5.3-1.1.5-1.7.6Z" style="fill: #fff; stroke-width: 0px;"/>
      <path id="Path_349" data-name="Path 349" d="m9.24246,44.90404l-1.3,1.1s-.1,0-.1.1c-.1.1-.3.3-.4.3-.2-.1-.3-.3-.4-.4s0-.1,0-.2c.8-.7,1.7-1.4,2.6-2,.1-.1.1,0,.2,0,.1.2.2.3.3.4s.1.2,0,.2c-.3.6-.5,1.2-.8,1.9l-.3.6c.2-.1.3-.2.4-.3.5-.4,1-.8,1.4-1.2.1-.1.2-.1.2,0q.4.4-.1.8c-.5.4-1.10001.89999-1.60001,1.3-.1.1-.2.1-.3.2-.2.1-.4.4-.4.3-.2-.2-.4-.4-.6-.6v-.2c.3-.7.6-1.4.9-2.1q.3-.10001.3-.2Z" style="fill: #fff; stroke-width: 0px;"/>
      <path id="Path_350" data-name="Path 350" d="m4.54246,24.70404c-.7-.1-1.4-.2-2.2-.3-.1,0-.2,0-.2-.2.1-.5.1-.6.6-.5.9.1,1.8.3,2.8.4q.2,0,.2.2-.1.6-.7.8c-.4.1-.7.3-1.1.4s-.7.2-1.1.4c.3,0,.6.1.9.1.5.1.9.1,1.4.2.1,0,.2.1.2.2q-.1.5-.6.5c-.9-.2-1.8-.3-2.8-.4-.2,0-.2-.1-.2-.2,0-.5.3-.9.8-1,.6-.2,1.2-.4,1.8-.6.1.09999.2.09999.2,0Z" style="fill: #fff; stroke-width: 0px;"/>
      <path id="Path_351" data-name="Path 351" d="m3.04246,33.70404c.5-.1,1.1-.2,1.6-.2.3,0,.6-.1.9-.1q.1,0,.2.1.1.6-.5.7c-.9.1-1.8.2-2.8.3q-.2,0-.2-.2c-.2-.4,0-.9.4-1.1.6-.3,1.1-.8,1.7-1.1-.2,0-.3.1-.5.1-.6.1-1.1.2-1.7.2-.1,0-.2,0-.2-.1h0c-.1-.6-.1-.5.5-.6.9-.1,1.8-.2,2.8-.4q.2,0,.2.2c.2.4,0,.8-.4,1s-.7.5-1.1.8c-.4.1-.6.3-.9.4Z" style="fill: #fff; stroke-width: 0px;"/>
      <path id="Path_352" data-name="Path 352" d="m44.34246,8.90404c.1-.1.2-.2.2-.2.3-.5.7-1.1,1-1.6q.1-.1.2,0,.5.3.2.8c-.5.8-1,1.5-1.5,2.3-.1.1-.1.2-.3.1q-.5-.4-.5-1c0-.6.1-1.4.2-2.1-.1,0-.1.1-.2.2-.4.6-.8,1.2-1.1,1.7-.1.1-.1.2-.3.1q-.39999-.3-.19999-.7c.5-.8,1-1.5,1.5-2.3.1-.1.2-.2.3-.1.1,0,.1.1.2.1.4.1.4.4.4.8.1.5.1,1.2-.1,1.9Z" style="fill: #fff; stroke-width: 0px;"/>
      <path id="Path_353" data-name="Path 353" d="m56.34246,37.00404c-1-.3-2-.7-3-1-.1,0-.1-.1-.2,0-.3.6-.5,1.2-.5,1.8v.3c.2.7.8,1.2,1.5,1.3.7.2,1.4-.1,1.7-.7.3-.5.5-1.1.6-1.6q0-.10001-.1-.10001Zm-.7.7c-.1.5-.4.9-.9,1-.6.1-1.1-.2-1.4-.7-.1-.1-.1-.3-.1-.4v-.2q.1-.6.6-.4c.5.2,1,.3,1.5.5q.3.10001.3.20001h0Z" style="fill: #fff; stroke-width: 0px;"/>
      <path id="Path_354" data-name="Path 354" d="m9.14246,42.70403c-.2-.6-.6-1.1-1-1.5-.3-.3-.7-.4-1.1-.4-.6,0-1.1.3-1.5.7-.3.3-.4.8-.3,1.2.2.7.5,1.2.9,1.8q.1.1.2,0c.9-.5,1.8-1,2.7-1.6q.09999-.09999.09999-.2Zm-1-.2c-.6.3-1.2.7-1.8,1-.1.1-.2,0-.2-.1-.3-.3-.4-.8-.2-1.2.2-.4.7-.7,1.1-.7.5,0,1,.3,1.1.8q.10001.09999,0,.19999Z" style="fill: #fff; stroke-width: 0px;"/>
      <path id="Path_355" data-name="Path 355" d="m52.94245,14.60403c-.8-.3-1.6-.2-2.2.4-.5.4-.7,1.1-.4,1.7.2.7.8,1.1,1.5,1.1s1.4-.4,1.8-1c.5-.6.2-1.7-.7-2.2.1.1,0,.1,0,0Zm-.1,2c-.3.3-.7.5-1.1.5s-.8-.2-.8-.6c0-.2,0-.3.1-.5.3-.5.8-.8,1.4-.8.3,0,.6.2.8.5,0,.4-.1.7-.4.9h0Z" style="fill: #fff; stroke-width: 0px;"/>
      <path id="Path_356" data-name="Path 356" d="m47.44245,8.80403c-.6,0-1.2.4-1.5.9-.4.5-.4,1.1-.1,1.6.3.6.9,1,1.5,1,.7,0,1.4-.4,1.7-1.1.4-.8.1-1.8-.7-2.2-.3-.1-.6-.2-.9-.2Zm-.1,2.8c-.3,0-.7-.1-.8-.4-.1-.3-.1-.7.2-1,.2-.2.4-.4.6-.5s.50001-.2.7-.2c.3.1.6.4.6.7-.2.7-.7,1.3-1.3,1.4h0Z" style="fill: #fff; stroke-width: 0px;"/>
      <path id="Path_357" data-name="Path 357" d="m21.54246,3.10404c-.9,0-1.7.7-1.7,1.6h0c-.1,1,.7,1.8,1.7,1.9.9.1,1.7-.6,1.8-1.5v-.1c0-1-.7-1.9-1.8-1.9.1,0,0,0,0,0Zm.4,2.9c-.4.1-.8,0-1-.3-.3-.3-.4-.8-.3-1.2,0-.3.2-.6.5-.7s.7,0,.9.2c.3.3.4.7.5,1.1-.1.5-.2.8-.6.9h0Z" style="fill: #fff; stroke-width: 0px;"/>
      <path id="Path_358" data-name="Path 358" d="m42.54245,5.00404s0,.1,0,0c-.5,1-.9,2-1.4,2.9q-.1.2-.3.1c-.1-.1-.2-.1-.3-.2-.3,0-.2-.2-.1-.3.2-.3.3-.6.5-1,.1-.1,0-.1-.1-.2-.3-.1-.7-.3-1-.4-.1-.1-.1,0-.2.1-.2.3-.3.7-.5,1-.1.1-.1.2-.2.1-.2-.1-.4-.1-.5-.3s.1-.3.2-.5c.4-.8.8-1.6,1.1-2.4.1-.2.2-.2.3-.1.1.1.2.1.3.2.2,0,.2.2.1.3-.2.3-.3.6-.4.9-.1.1,0,.1.1.2.3.1.7.3,1,.4.1.1.2,0,.2-.1.1-.3.3-.6.4-.9.1-.1.1-.2.2-.1s.3.1.4.2c.10001,0,.2,0,.2.1Z" style="fill: #fff; stroke-width: 0px;"/>
      <path id="Path_359" data-name="Path 359" d="m53.94245,18.40404c.5,0,1,.2,1.3.5.4.4.6,1,.7,1.5,0,.1,0,.2-.2.2s-.3.1-.4,0c-.1,0-.1-.2-.1-.4,0-.1-.1-.2-.1-.3-.1-.5-.5-.8-1-.8s-1,.3-1.2.8c-.2.4.1.7.2,1,0,0,.1.1.1,0h0c.2-.1.4-.1.6-.2.1,0,0-.1,0-.1,0-.1-.1-.2-.1-.3s0-.1.1-.2q.4-.2.6.2c.1.2.2.4.3.7q0,.1-.1.2c-.5.2-1,.4-1.4.6-.1,0-.2,0-.3-.1-.5-.6-.8-1.3-.7-2.1.1-.7.7-1.1,1.4-1.3.1.09999.2.09999.3.09999Z" style="fill: #fff; stroke-width: 0px;"/>
      <path id="Path_360" data-name="Path 360" d="m54.74246,41.10403c-.8-.4-1.6-.8-2.4-1.2q-.5-.3-.8.2c-.1.2,0,.2.1.3.3.1.6.3.9.4.1.1.2.1.1.2-.1.3-.4.4-.7.3h0c-.2-.1-.5-.1-.8-.2-.1,0-.2,0-.2.1-.1.2-.2.4-.3.6.6,0,1.2.4,1.8.1v.3c.2.5.7.8,1.2.6.2-.1.4-.2.5-.3.3-.4.6-.8.7-1.3q.10001,0-.09999-.1Zm-.7.7c-.1.1-.1.3-.2.4-.1.2-.3.2-.5.1s-.3-.3-.3-.5.1-.4.2-.5.1,0,.2,0c.2.1.4.2.6.3t0,.2h0Z" style="fill: #fff; stroke-width: 0px;"/>
      <path id="Path_361" data-name="Path 361" d="m12.84246,11.60403c-.1.5-.4,1-.9,1.2-.4.2-.9.2-1.3-.1-.2-.1-.4-.3-.5-.5-.4-.4-.8-.7-1.2-1.1-.1-.1-.1-.2,0-.3q.4-.5.9,0l1,1c.1.1.3.3.5.3.2.1.5,0,.6-.1.2-.2.2-.4.1-.7-.1-.2-.2-.4-.4-.5l-1.2-1.2c-.1-.1-.1-.2,0-.3q.4-.4.8,0c.4.4.7.7,1.1,1.1.30001.4.50001.8.50001,1.2Z" style="fill: #fff; stroke-width: 0px;"/>
      <path id="Path_362" data-name="Path 362" d="m6.64246,37.80403q0-.1-.1-.2-.1-.4-.6-.4h-.3c-.1,0-.2,0-.2-.1h0c-.1-.2-.1-.4-.2-.6-.1-.1,0-.2.1-.3.2-.1.3-.2.5-.3q.1-.1.1-.2c-.1-.2-.1-.4-.2-.7-1,.7-2,1.3-3,1.9q-.1.1-.1.2c.1.2.2.5.2.7s.1.2.2.2h3.3c.3-.1.4-.1.3-.2Zm-3.1-.6l1.2-.8c.1.2.1.5.2.7-.4.1-.9.1-1.4.1h0Z" style="fill: #fff; stroke-width: 0px;"/>
      <path id="Path_363" data-name="Path 363" d="m52.14246,44.70403c-.6-.8-1.2-1.6-1.8-2.3-.1.2-.2.3-.3.5s-.1.2,0,.4c.2.2.4.3.4.5s-.2.4-.4.6c-.1.2-.2.2-.5.2q-.6-.2-.9.3-.1.2.1.3c1,.3,1.9.6,2.9,1,.2.1.4.1.5-.2.1-.2.4-.4.4-.6-.1-.3-.3-.5-.39999-.7Zm-.5.60001l-1.2-.5c.1-.2.2-.3.4-.5q.1-.1.2,0c.1.3.39999.6.6,1h0Z" style="fill: #fff; stroke-width: 0px;"/>
      <path id="Path_364" data-name="Path 364" d="m57.04245,33.60403c-.2-.1-.4-.2-.7-.3l-2.5-1.2c0,.2-.1.3-.1.5-.1.2,0,.3.2.4q.6.2.5.9c0,.3-.1.4-.4.4-.6,0-.6.1-.7.7,0,.1,0,.2.2.2,1-.2,2.1-.3,3.1-.4.2,0,.3-.1.3-.3s.1-.4.1-.6c.2-.2.10001-.30001,0-.30001q.10001,0,0,0Zm-1.8.6q-.1,0-.1-.1c0-.2.1-.4.1-.6l1.3.6c-.50001,0-.9,0-1.3.1h0Z" style="fill: #fff; stroke-width: 0px;"/>
      <path id="Path_365" data-name="Path 365" d="m34.44245,2.90403c-.4,0-.7-.1-1-.1q-.2,0-.2.2-.1.5.4.6c.2,0,.3,0,.5.1.1,0,.3,0,.3.1,0,.2,0,.4-.1.5,0,.1-.1,0-.2,0-.3,0-.6-.1-.9-.1-.1,0-.2,0-.2.1q-.1.7.5.8c.2,0,.5.1.7.1q.1,0,.1.1c0,.2,0,.3-.1.5,0,.1-.1.1-.2.1-.6-.1-1.3-.2-1.9-.3-.1,0-.1-.1-.1-.2.1-.9.3-1.9.4-2.8q.1-.5.5-.4c.5.1,1,.1,1.5.2.1,0,.2.1.2.2v.2c.1.09999,0,.2-.2.09999Z" style="fill: #fff; stroke-width: 0px;"/>
      <path id="Path_366" data-name="Path 366" d="m16.84246,4.90403c.1,0,.1.1.2.2q.2.4-.1.6c-.2.1-.5.3-.7.4-.1,0-.1.1-.1.2q.3.5.8.2c.1,0,.2-.1.2-.1q.4-.2.6.2c.1.1.1.2-.1.2-.3.2-.6.3-.8.5q-.1.1-.1.2c.1.2.2.5.3.5s.4-.2.5-.3.4-.2.6-.3h.2q.3.4-.2.7l-1.2.7q-.3.2-.4-.1c-.3-.5-.5-1-.8-1.4-.2-.4-.5-.8-.7-1.2-.1-.1-.1-.2,0-.2.6-.3,1.1-.6,1.8-1h0Z" style="fill: #fff; stroke-width: 0px;"/>
      <path id="Path_367" data-name="Path 367" d="m6.44245,22.00404c0,.4-.2.9-.5,1.2-.1.1-.2.1-.3,0-.1-.1-.3-.1-.3-.2s.1-.2.2-.3c.1-.2.2-.4.2-.6s0-.3-.2-.4c-.1-.1-.3,0-.4.1-.2.2-.3.3-.4.5-.2.3-.7.5-1.2.3s-.8-.8-.6-1.3c.1-.3.2-.6.4-.9q.1-.1.2,0c.1.1.3.2.4.3s-.1.2-.2.4-.1.3-.2.5c0,.1,0,.3.2.3.1.1.3,0,.4-.1.2-.2.3-.4.5-.5.2-.3.6-.5.9-.4.6,0,1,.4.9,1.1Z" style="fill: #fff; stroke-width: 0px;"/>
      <path id="Path_368" data-name="Path 368" d="m48.54245,46.10403c-.2.1-.4.2-.6.4l-.3.3c-.1.1-.1.3,0,.4s.3.2.4.1c.1,0,.2-.1.4-.1.2-.1.3-.2.5-.2.3-.1.7,0,1,.3.2.3.3.7.2,1-.2.5-.6.9-1,1.1-.1.1-.1,0-.2-.1s-.2-.3-.2-.4c0-.2.2-.2.3-.3.1-.1.3-.2.4-.4.1-.1.1-.3,0-.4s-.2-.1-.4-.1c-.2.1-.5.2-.8.3-.3.2-.7.1-1-.1-.4-.3-.5-.7-.3-1.1.2-.5.6-1,1.1-1.2h.2c.10001.19999.2.39999.3.49998Z" style="fill: #fff; stroke-width: 0px;"/>
      <path id="Path_369" data-name="Path 369" d="m38.24246,3.90403c-.3-.2-.7-.3-1-.3-.2,0-.3,0-.4.1-.4.3-.6.8-.6,1.3.1.5.4.8.8.9.1,0,.3.1.4.1.2,0,.2.1.2.2q0,.4-.5.4c-.2,0-.5-.1-.7-.2-.7-.2-1.1-.8-1.1-1.5,0-.8.4-1.5,1.1-1.8.7-.2,1.4-.2,2,.2q.1.1,0,.2c0,.1-.10001.3-.2.4Z" style="fill: #fff; stroke-width: 0px;"/>
      <path id="Path_370" data-name="Path 370" d="m24.64246,5.80403c-.1,0-.1-.1,0,0-.3-1.1-.4-2-.6-3q-.1-.4.3-.4c.5-.1,1-.2,1.5-.3.1,0,.2,0,.2.1q.1.5-.4.5c-.2,0-.5.1-.7.1s-.2.1-.1.2c0,.1.1.3.1.4,0,.2.1.2.3.2.3-.1.6-.1.9-.1.1,0,.2,0,.2.1q.1.5-.4.6c-.2,0-.4.1-.5.1-.2,0-.2.1-.2.3.1.3.1.6.2,1,0,.1,0,.2-.2.2-.3,0-.4,0-.6,0Z" style="fill: #fff; stroke-width: 0px;"/>
      <path id="Path_371" data-name="Path 371" d="m55.34246,23.60403l1.4.2q.1,0,.2.1c.1.2.1.5.2.8-.5-.1-.9-.2-1.4-.4-.6-.2-1.2-.2-1.8,0-.5.2-.5.1-.6-.4-.1-.2,0-.3.2-.3h.1c.7-.1,1.4-.4,1.9-1,.3-.3.6-.5.9-.8.1.2.1.5.2.7.1.1,0,.3-.1.3-.39999.3-.79999.60001-1.19999.8Z" style="fill: #fff; stroke-width: 0px;"/>
      <path id="Path_372" data-name="Path 372" d="m10.24246,14.90404c-.1.2-.3.4-.4.6,0,0-.1,0-.1-.1-.7-.4-1.3-.9-2-1.4-.2-.1-.3-.1-.3.1,0,.1-.1.1-.1.2-.1.1-.2.3-.3.3-.2-.1-.3-.2-.5-.3-.1,0,0-.1,0-.1.5-.7,1-1.3,1.4-2q.1-.1.2,0c.1.1.2.2.3.2q.1.1,0,.2c-.1.2-.2.3-.4.5-.1.1-.1.2,0,.3.7.5,1.3,1,2,1.5q.2-.1.2,0Z" style="fill: #fff; stroke-width: 0px;"/>
      <path id="Path_373" data-name="Path 373" d="m29.64246,3.90403v-1.2c0-.1,0-.2-.2-.2h-.6c-.1,0-.2,0-.1-.1h0q0-.5.5-.5h2q.2,0,.2.2,0,.5-.5.5t-.5.5v2.1c0,.1,0,.2-.2.2q-.6,0-.6-.6c0-.3,0-.6,0-.9h0Z" style="fill: #fff; stroke-width: 0px;"/>
      <path id="Path_374" data-name="Path 374" d="m4.34246,19.40404c-.2-.1-.3-.2-.5-.2-.1,0,0-.1,0-.2.3-.7.7-1.5,1-2.2,0-.1.1-.1.2-.1q.5.2.3.7-.2.4.2.6c.7.3,1.3.6,2,.9.1.1.2.1.1.2-.1.2-.1.4-.3.5s-.3-.1-.5-.2c-.6-.3-1.2-.6-1.9-.9-.1-.1-.2,0-.2.1-.1.2-.2.4-.2.6-.1.1-.1.2-.2.2Z" style="fill: #fff; stroke-width: 0px;"/>
      <path id="Path_375" data-name="Path 375" d="m14.64246,10.40404s-.1-.1-.1-.2l-1.4-1.8q-.2-.3-.4-.1c-.1.1-.3.2-.4.3s-.1.1-.2,0q-.3-.4.1-.7c.5-.4,1.1-.8,1.6-1.2.1-.1.2-.1.2,0q.3.4-.1.7t-.1.7c.4.6.9,1.2,1.3,1.7.1.1.1.2,0,.3s-.2.2-.5.3q.1,0,0,0Z" style="fill: #fff; stroke-width: 0px;"/>
      <path id="Path_376" data-name="Path 376" d="m50.74246,11.50404s.1,0,0,0c.2.2.4.4.5.5s0,.1-.1.2c-.6.5-1.3,1-1.9,1.5-.1.1-.1.2,0,.3.2.3.4.5.6.8q.1.1,0,.2-.4.3-.7-.1c-.3-.4-.6-.8-.9-1.2q-.1-.1,0-.2c.7-.6,1.6-1.3,2.5-2-.1,0,0,0,0,0Z" style="fill: #fff; stroke-width: 0px;"/>
      <path id="Path_377" data-name="Path 377" d="m1.94246,28.80403c-.1,0-.2-.1-.2-.2q0-.6.6-.6c.9.1,1.8.1,2.8.1q.2,0,.2.2v.2q0,.4-.4.3c-.5,0-.9,0-1.4-.1l-1.6.1Z" style="fill: #fff; stroke-width: 0px;"/>
      <path id="Path_378" data-name="Path 378" d="m8.84246,16.90404c-.1.2-.2.4-.4.6,0,.1-.1,0-.1,0-.9-.5-1.8-1.1-2.8-1.6-.1,0-.1-.1-.1-.2h0q.3-.5.8-.2c.8.5,1.5.9,2.3,1.4.2-.1.3-.1.3,0Z" style="fill: #fff; stroke-width: 0px;"/>
      <path id="Path_379" data-name="Path 379" d="m7.34246,39.30404c0,.1-.1.1,0,0-1.1.5-2.1.9-3,1.3-.1,0-.2,0-.2-.1q-.3-.6.3-.8c.8-.3,1.7-.7,2.5-1.1.2-.1.2,0,.3.1-.1.2,0,.39999.1.6Z" style="fill: #fff; stroke-width: 0px;"/>
      <path id="Path_380" data-name="Path 380" d="m12.94245,47.10403c0,.1-.1.1,0,0-.8.9-1.6,1.6-2.3,2.4-.1.1-.2.1-.2,0-.1-.2-.4-.3-.4-.4s.2-.3.4-.4c.6-.6,1.3-1.3,1.9-1.9.1-.1.2-.1.3,0,.1.10001.2.2.3.3q-.1-.1,0,0Z" style="fill: #fff; stroke-width: 0px;"/>
      <path id="Path_381" data-name="Path 381" d="m13.64246,50.80404c-.3,0-.5-.2-.5-.5h0c0-.3.2-.5.5-.5h0c.3,0,.5.2.5.5s-.2.5-.5.5Z" style="fill: #fff; stroke-width: 0px;"/>
      <path id="Path_382" data-name="Path 382" d="m45.64246,50.80404c-.3,0-.5-.2-.5-.5h0c0-.3.2-.5.5-.5s.5.2.5.5-.2.5-.5.5h0Z" style="fill: #fff; stroke-width: 0px;"/>
      <path id="Path_383" data-name="Path 383" d="m38.14246,51.40404c.2,0,.3.1.5.2l.1.1h-.1c-.3-.1-.5,0-.6.3s0,.5.3.7c.1,0,.2,0,.1.2s-.2,0-.2,0c-.2-.1-.3-.2-.5-.4-.2-.2-.2-.4-.1-.7-.00001-.3.29999-.39999.49999-.39999Z" style="fill: #fafafc; stroke-width: 0px;"/>
      <path id="Path_384" data-name="Path 384" d="m25.54246,53.30404c0-.3.2-.6.5-.6h0c.3,0,.7.2.8.5v.1c0,.1-.1,0-.1,0-.1-.1-.3-.2-.4-.2-.3,0-.5.3-.4.6v.2c0,.1.1.1.1.2v.1s-.1,0-.1-.1c-.3-.3-.4-.6-.4-.8Z" style="fill: #fafafc; stroke-width: 0px;"/>
      <path id="Path_385" data-name="Path 385" d="m35.94245,56.70403c.1,0,0-.1.1-.2,0,0,0,.1-.1.2h0Z" style="fill: #c09b99; stroke-width: 0px;"/>
      <path id="Path_386" data-name="Path 386" d="m52.14246,29.40404c0,3.2-.6,6.3-1.9,9.2-.8,1.9-2,3.7-3.3,5.3-3.2,3.8-7.6,6.4-12.5,7.4-6.5,1.4-13.2-.1-18.5-4.2-2.7-2.1-4.9-4.7-6.4-7.7-1.2-2.3-2-4.8-2.2-7.4-.5-4.2.2-8.4,2-12.2,1.4-3,3.6-5.7,6.2-7.8,1.8-1.5,3.9-2.7,6.2-3.5,4-1.5,8.4-1.8,12.5-1,4.8,1,9.1,3.5,12.3,7.1,2.8,3.1,4.6,6.8,5.3,10.9.2,1.39999.3,2.69999.3,3.89999Z" style="fill: #d5a44f; stroke-width: 0px;"/>
      <path id="Path_387" data-name="Path 387" d="m34.34246,55.40404v.2c-.1,0-.1-.1,0-.2Z" style="fill: #641514; stroke-width: 0px;"/>
      <path id="Path_388" data-name="Path 388" d="m34.34246,55.40404v.2c-.2,0-.2-.1,0-.2Z" style="fill: #fff; stroke-width: 0px;"/>
      <path id="Path_389" data-name="Path 389" d="m29.74246,43.40404c-2.7,0-5.3-.4-7.8-1.4-2.4-.9-4.5-2.3-6.3-4.2-1.2-1.3-2.1-2.8-2.6-4.5-.1-.3,0-.7.3-1s.6-.5,1-.6c1.2-.5,2.4-.8,3.6-1.1,2.1-.4,4.2-.7,6.3-.8.2,0,.2-.1.1-.2-.5-1.1-.8-2.3-.9-3.5-.2-1.9,0-3.8.6-5.6.5-1.7,1.3-3.4,2.3-4.8.5-.8,1-1.6,1.5-2.4.7-1.1,1.2-2.3,1.4-3.6,0-.2.1-.2.2-.2q.4,0,.4.4c.3,1.4.8,2.7,1.6,3.9.6,1,1.3,2,1.9,3,.3.4.5.9.7,1.3.8,1.4,1.3,3,1.5,4.6.4,2.3.1,4.7-.8,6.9q-.1.3.2.3c2.6.2,5.3.6,7.8,1.2.8.2,1.5.5,2.2.8.4.2.8.5.9,1v.3c-.6,2.1-1.8,4.1-3.4,5.6-.6.6-1.3,1.1-2,1.6-2.2,1.4-4.5,2.3-7,2.7-.4.1-.8.1-1.3.2-.7.10001-1.5.2-2.4.10001Z" style="fill: #181412; stroke-width: 0px;"/>
      <path id="Path_390" data-name="Path 390" d="m17.64246,43.50404c.8.1,1.6.3,2.4.4,1.7.3,3.4.6,5.1.9.1,0,.2,0,.3.1l-.9,1,8.1.7-.8.7,7.7.3v.1l-10.3,1,1.3-1.2-8.4-.8,1.4-1-5.9-2.2h0Z" style="fill: #fff; stroke-width: 0px;"/>
      <path id="Path_391" data-name="Path 391" d="m17.64246,43.50404h-.2c0-.1.1-.1.2,0Z" style="fill: #f0dfc3; stroke-width: 0px;"/>
      <path id="Path_392" data-name="Path 392" d="m14.14246,34.20404c1,.3,2.1.6,3.1.8.9.2,1.8.3,2.7.4,1.1.1,2.2.2,3.3.2,1.5,0,2.9-.3,4.3-.6.7-.2,1.3-.3,1.9-.6h.3c1.3.5,2.6.8,3.9,1,.6.1,1.2.1,1.8.2.7.1,1.4,0,2.1,0,.9-.1,1.8-.2,2.6-.3,1.2-.2,2.4-.4,3.6-.7.4-.1.7-.2,1.1-.4-.1.4-.3.8-.5,1.1-1,1.8-2.4,3.3-4.1,4.4-2,1.4-4.3,2.3-6.7,2.8-1.1.2-2.2.3-3.3.4-1.3.1-2.5,0-3.8-.2-1.8-.2-3.6-.7-5.3-1.4-1.5-.6-2.9-1.4-4.1-2.5-.7-.6-1.3-1.2-1.9-1.9-.09999-.80001-.59999-1.70001-1-2.70001,0,.1,0,0,0,0Z" style="fill: #781e19; stroke-width: 0px;"/>
      <path id="Path_393" data-name="Path 393" d="m32.24246,25.20404c.3-.6.4-1.3.3-2,0-.5-.2-1.1-.2-1.6-.1-.8-.2-1.6-.1-2.4v-.2c.1-.1,0-.3-.1-.4-.1-.1-.3-.1-.4,0-.2.1-.3.3-.5.4l-.5-1.2-.7,1c-.2-.1-.2-.4-.4-.4s-.3.2-.4.3l-.7-.9c-.2.4-.4.8-.6,1.2-.2-.1-.3-.3-.5-.4-.1-.1-.3-.2-.4-.1-.2.1-.2.2-.1.4.1.4.1.9,0,1.3,0,.8-.1,1.5-.3,2.2-.2.9-.1,1.9.2,2.7-.4,0-.8.1-1.1.2-.2.1-.3.2-.3.3,0,.2.1.2.3.3.2,0,.3.2.4.4.1.1,0,.1-.1.2-.2.1-.3.2-.5.3-.2.2-.2.4,0,.5.2.2.5.3.7.5.4.4,1,.6,1.5.6.1,0,.2,0,.2.1.1.5.4.9.8,1.3.1.1.2.2.2.3v3.5q0,.2-.2.3c-.3.1-.5.2-.8.2-.1,0-.2.1-.3-.1-1.2-1.5-2.1-3.1-2.9-4.8-1.2-3-1.2-6.4,0-9.5.5-1.4,1.2-2.7,2-3.9.3-.5.6-.9.9-1.4.8-1.1,1.4-2.3,1.8-3.5.1.2.1.3.2.5.4,1.1,1,2.2,1.7,3.2.8,1.2,1.6,2.4,2.2,3.7.7,1.4,1.1,2.8,1.4,4.3.3,2.2.1,4.4-.8,6.4-.8,1.7-1.7,3.3-2.9,4.8-.1.1-.2.1-.3.1-.2-.1-.5-.2-.8-.2-.1,0-.2-.1-.2-.2v-3.6c0-.1,0-.2.1-.3.4-.3.7-.8.9-1.3,0-.1.1-.1.2-.1.5,0,1-.2,1.4-.5.2-.2.5-.4.8-.5.1-.1.2-.2.1-.4l-.1-.1c-.2-.1-.4-.3-.5-.4s-.1-.1-.1-.2c.1-.2.2-.3.5-.3.2,0,.3-.1.3-.3,0-.1-.1-.3-.2-.3-.30001,0-.70001,0-1.10001,0Z" style="fill: #fff; stroke-width: 0px;"/>
      <path id="Path_394" data-name="Path 394" d="m31.94245,34.40404c.5-.7,1-1.4,1.5-2.1.2-.3.4-.7.6-1.1.2-.2.3-.4.4-.7,0-.1.2-.1.2-.1.9.1,1.9.2,2.8.3,1.8.2,3.6.5,5.3,1,.7.2,1.3.4,1.9.7.2.1.4.2.5.3.4.3.4.5,0,.7l-.6.3c-1,.3-2,.6-3.1.7-1.4.2-2.8.4-4.2.5-1,0-2,0-2.9-.1-.7-.1-1.5-.2-2.2-.4,0,0-.1,0-.2,0Z" style="fill: #fff; stroke-width: 0px;"/>
      <path id="Path_395" data-name="Path 395" d="m22.54246,34.90404c-1.2,0-2.4-.1-3.5-.3-1.3-.2-2.7-.4-3.9-.8-.4-.1-.7-.2-1.1-.4-.3-.2-.3-.4,0-.6.5-.3,1-.6,1.6-.8,1.5-.5,3.1-.8,4.7-1,1.4-.2,2.9-.4,4.3-.5.1,0,.2,0,.3.1.7,1.3,1.4,2.5,2.3,3.6q.1.2-.1.2c-1.6.4-3.1.5-4.6.5Z" style="fill: #fff; stroke-width: 0px;"/>
      <path id="Path_396" data-name="Path 396" d="m29.64246,19.20404c.7,1.1,1.1,2.4,1.4,3.7.2.8.1,1.5-.1,2.2-.2.5-.4.9-.8,1.2-.3.2-.7.2-.9,0-.5-.5-.9-1.2-1-1.9-.1-1.4.2-2.9.9-4.2.1-.3.3-.6.5-1Z" style="fill: #ca111b; stroke-width: 0px;"/>
      <path id="Path_397" data-name="Path 397" d="m29.74246,27.10403c.6,0,1,.5,1,1.1,0,.2-.1.3-.1.5-.2.3-.5.6-.8.9-.1.1-.1,0-.2,0l-.7-.7c-.4-.5-.2-1.2.3-1.6h.1c.1-.1.2-.2.4-.2Z" style="fill: #ca111b; stroke-width: 0px;"/>
      <path id="Path_398" data-name="Path 398" d="m31.64246,19.50404c0,1.3.1,2.6.3,3.8.1.6-.1,1.3-.4,1.8,0-.2.1-.4.1-.6.1-1.2-.1-2.4-.6-3.6,0-.1-.1-.2-.1-.2q-.2-.5.2-.9c.2-.1.3-.2.5-.3Z" style="fill: #ca111b; stroke-width: 0px;"/>
      <path id="Path_399" data-name="Path 399" d="m27.54246,25.00404c-.2-.4-.3-.8-.3-1.3,0-.6.1-1.1.2-1.7.1-.8.2-1.6.2-2.4v-.2c.3.2.5.4.7.6.1.1.1.2,0,.3-.3.6-.5,1.3-.7,2-.2.8-.2,1.7-.1,2.5.09999.10001.09999.2,0,.2Z" style="fill: #ca111b; stroke-width: 0px;"/>
      <path id="Path_400" data-name="Path 400" d="m26.44245,27.10403c.6-.4,1.3-.5,2-.2.1,0,.2.1.1.2-.2.2-.3.4-.3.6s-.1.2-.3.2c-.4,0-.8-.2-1.1-.5l-.4-.3Z" style="fill: #ca111b; stroke-width: 0px;"/>
      <path id="Path_401" data-name="Path 401" d="m30.74246,26.90404c.6-.2,1.4-.2,2,.2.1,0,.1.1,0,.1-.3.4-.8.6-1.3.7-.1,0-.2,0-.2-.1-.1-.4-.3-.7-.5-.9Z" style="fill: #ca111b; stroke-width: 0px;"/>
      <path id="Path_402" data-name="Path 402" d="m26.64246,25.80403c.3-.2.7,0,.9.3h-.3q-.4.1-.6-.3Z" style="fill: #c5131b; stroke-width: 0px;"/>
      <path id="Path_403" data-name="Path 403" d="m31.64246,26.10403c.2-.4.6-.3.9-.3q-.2.5-.9.3Z" style="fill: #c5131b; stroke-width: 0px;"/>
      <path id="Path_404" data-name="Path 404" d="m30.64246,18.90404c.1.2.3.3.1.5-.1,0-.1.2-.2.1s-.2-.2-.1-.3c0,0,.1-.1.2-.3Z" style="fill: #c2121c; stroke-width: 0px;"/>
      <path id="Path_405" data-name="Path 405" d="m28.84246,19.30403c0,.1-.1.2-.2.3,0,0-.1-.1-.2-.1-.1-.1,0-.2,0-.2,0,0,0-.2.1-.2.3,0,.3.1.3.2Z" style="fill: #c2121c; stroke-width: 0px;"/>
    </g>
    <g style="isolation: isolate;">
      <path d="m66.49046,19.22903v-1.7h5.9v1.7l-1.5.3v10.2l1.5.3v1.7h-5.9v-1.7l1.5-.3v-10.2l-1.5-.3Z" style="fill: #363636; stroke-width: 0px;"/>
      <path d="m73.49046,19.22903v-1.7h5.9v1.7l-1.5.3v10.2l1.5.3v1.7h-5.9v-1.7l1.5-.3v-10.2l-1.5-.3Z" style="fill: #363636; stroke-width: 0px;"/>
      <path d="m92.99046,17.52903v3.8h-2.2l-.1-1.6h-2.6v10l1.5.3v1.7h-5.9v-1.7l1.5-.3v-10h-2.6l-.1,1.6h-2.2v-3.8s12.69999,0,12.69999,0Z" style="fill: #363636; stroke-width: 0px;"/>
      <path d="m112.59046,21.22903h0l-3.9,10.5h-1.9l-3.8-10.5h-.1l.3,6.2v2.2l1.5.3v1.7h-5.9v-1.7l1.5-.3v-10.1l-1.5-.3v-1.7h5.2l3.6,10.5h.1l3.7-10.5h5.2v1.7l-1.5.3v10.2l1.5.3v1.7h-5.9v-1.7l1.5-.3v-2.2l.40001-6.3Z" style="fill: #363636; stroke-width: 0px;"/>
      <path d="m124.49046,31.72903c-.1-.2-.2-.4-.2-.5s-.1-.4-.1-.6c-.3.4-.8.7-1.2,1-.5.2-1,.4-1.7.4-1,0-1.9-.3-2.5-.8-.6-.6-.9-1.3-.9-2.3s.4-1.8,1.2-2.3,2-.8,3.5-.8h1.5v-1c0-.5-.1-.9-.4-1.2-.3-.3-.7-.4-1.3-.4-.3,0-.6,0-.9.1s-.5.2-.6.3l-.2,1.1h-2.1v-2.3c.5-.3,1.1-.6,1.8-.9.7-.2,1.4-.4,2.2-.4,1.3,0,2.4.3,3.2,1,.8.6,1.2,1.5,1.2,2.7v5.3l.9.1v1.7l-3.4-.20001h0Zm-2.5-1.9c.4,0,.8-.1,1.2-.3.3-.2.6-.4.8-.7v-1.6h-1.5c-.6,0-1.1.1-1.4.4-.3.3-.5.6-.5,1s.1.6.4.8c.3.3.6.4,1,.4Z" style="fill: #363636; stroke-width: 0px;"/>
      <path d="m135.59046,30.42903c-.3.5-.7.9-1.2,1.1-.39999.2-1,.4-1.60001.4-1.3,0-2.3-.5-3-1.4s-1.10001-2.2-1.10001-3.8v-.2c0-1.7.39999-3,1.10001-4s1.7-1.5,3.10001-1.5c.5,0,1,.1,1.39999.4.39999.2.8.6,1.10001,1v-3.8l-1.5-.3v-1.7h4.39999v13.2l1.39999.3v1.7h-3.8l-.29999-1.4Zm-4-3.7c0,.9.10001,1.6.5,2.2.3.5.8.8,1.5.8.39999,0,.8-.1,1.10001-.2.3-.2.60001-.4.8-.7v-4.5c-.2-.3-.39999-.6-.8-.8-.3-.2-.7-.3-1.10001-.3-.7,0-1.2.3-1.5.9s-.5,1.4-.5,2.4v.2h0Z" style="fill: #363636; stroke-width: 0px;"/>
      <path d="m140.79046,30.02903l1.39999-.3v-6.6l-1.5-.3v-1.7h4.2l.10001,1.5c.2-.5.60001-1,1-1.3s.8-.5,1.39999-.5h.5c.2,0,.3,0,.39999.1l-.3,2.6h-1.2c-.39999,0-.8.1-1,.2s-.5.4-.60001.7v5.1l1.39999.3v1.7h-5.59998l-.2-1.5h0Z" style="fill: #363636; stroke-width: 0px;"/>
      <path d="m155.49046,31.72903c-.10001-.2-.10001-.4-.2-.5s-.10001-.4-.10001-.6c-.3.4-.8.7-1.2,1-.5.2-1,.4-1.7.4-1,0-1.89999-.3-2.5-.8-.60001-.6-.89999-1.3-.89999-2.3s.39999-1.8,1.2-2.3,2-.8,3.5-.8h1.5v-1c0-.5-.10001-.9-.39999-1.2-.3-.3-.7-.4-1.3-.4-.3,0-.60001,0-.89999.1s-.5.2-.60001.3l-.2,1.1h-2.10001v-2.3c.5-.3,1.10001-.6,1.8-.9.7-.2,1.39999-.4,2.2-.4,1.3,0,2.39999.3,3.2,1s1.2,1.5,1.2,2.7v5.3l.89999.1v1.7l-3.39999-.20001h0Zm-2.5-1.9c.39999,0,.8-.1,1.2-.3.3-.2.60001-.4.8-.7v-1.6h-1.5c-.60001,0-1.10001.1-1.39999.4-.3.3-.5.6-.5,1s.10001.6.39999.8c.3.3.60001.4,1,.4Z" style="fill: #363636; stroke-width: 0px;"/>
      <path d="m168.39045,24.82903h-1.89999l-.3-1.3c-.2-.2-.39999-.3-.7-.4s-.60001-.2-1-.2c-.5,0-.89999.1-1.2.3s-.39999.5-.39999.8.10001.6.39999.8c.3.2.8.4,1.7.6,1.3.3,2.3.6,2.89999,1.2.60001.5.89999,1.2.89999,2.1,0,1-.39999,1.7-1.2,2.3s-1.89999.9-3.2.9c-.8,0-1.60001-.1-2.2-.4-.7-.2-1.3-.6-1.8-1v-2.4h2l.39999,1.4c.2.1.39999.2.7.3s.60001.1.89999.1c.60001,0,1-.1,1.3-.3s.39999-.5.39999-.9c0-.3-.10001-.6-.5-.8-.3-.2-.89999-.4-1.7-.6-1.2-.2-2.2-.6-2.8-1.1s-.89999-1.2-.89999-2c0-.9.39999-1.6,1.10001-2.3.7-.6,1.8-1,3.10001-1,.8,0,1.60001.1,2.3.3s1.3.5,1.7.8v2.8Z" style="fill: #363636; stroke-width: 0px;"/>
    </g>
  </g>
</svg>
